<?xml version="1.0" standalone="no"?><!DOCTYPE svg PUBLIC "-//W3C//DTD SVG 1.1//EN" "http://www.w3.org/Graphics/SVG/1.1/DTD/svg11.dtd"><svg t="1676541673812" class="icon" viewBox="0 0 1144 1024" version="1.1" xmlns="http://www.w3.org/2000/svg" p-id="4172" xmlns:xlink="http://www.w3.org/1999/xlink" width="223.4375" height="200"><path d="M301.176471 542.117647c-194.138353 0-301.176471 113.483294-301.176471 319.066353v159.503059h602.352941v-159.503059C602.352941 655.600941 495.314824 542.117647 301.176471 542.117647z m180.705882 361.411765H120.470588v-55.597177C120.470588 728.485647 182.814118 662.588235 301.176471 662.588235s180.705882 65.897412 180.705882 185.344V903.529412zM301.176471 481.882353a240.941176 240.941176 0 1 0 0-481.882353 240.941176 240.941176 0 0 0 0 481.882353z m0-361.411765a120.470588 120.470588 0 1 1-0.060236 241.001412A120.470588 120.470588 0 0 1 301.176471 120.470588zM662.588235 301.176471h197.451294c20.841412 35.84 59.271529 60.235294 103.725177 60.235294s82.883765-24.395294 103.725176-60.235294H1084.235294a60.235294 60.235294 0 0 0 0-120.470589h-16.745412c-20.841412-35.84-59.271529-60.235294-103.725176-60.235294s-82.883765 24.395294-103.725177 60.235294H662.588235a60.235294 60.235294 0 0 0 0 120.470589zM1084.235294 481.882353h-197.451294c-20.841412-35.84-59.271529-60.235294-103.725176-60.235294s-82.883765 24.395294-103.725177 60.235294H662.588235a60.235294 60.235294 0 0 0 0 120.470588h16.745412c20.901647 35.84 59.271529 60.235294 103.725177 60.235294s82.883765-24.395294 103.725176-60.235294H1084.235294a60.235294 60.235294 0 0 0 0-120.470588zM1084.235294 783.058824h-16.745412c-20.901647-35.84-59.271529-60.235294-103.725176-60.235295s-82.883765 24.395294-103.725177 60.235295H722.823529v120.470588h137.216c20.901647 35.84 59.271529 60.235294 103.725177 60.235294s82.883765-24.395294 103.725176-60.235294H1084.235294a60.235294 60.235294 0 0 0 0-120.470588z" fill="#1E2330" p-id="4173"></path></svg>