<?xml version="1.0" standalone="no"?><!DOCTYPE svg PUBLIC "-//W3C//DTD SVG 1.1//EN" "http://www.w3.org/Graphics/SVG/1.1/DTD/svg11.dtd"><svg t="1676541645189" class="icon" viewBox="0 0 1024 1024" version="1.1" xmlns="http://www.w3.org/2000/svg" p-id="3755" xmlns:xlink="http://www.w3.org/1999/xlink" width="200" height="200"><path d="M144 112h736c17.673 0 32 14.327 32 32v736c0 17.673-14.327 32-32 32H144c-17.673 0-32-14.327-32-32V144c0-17.673 14.327-32 32-32z m32 64v672h672V176H176z m396.48 232.12l-1.62 4.32c11.88 58.32 28.62 112.32 52.92 158.76 23.22-45.36 38.34-99.36 48.6-163.08h-99.9z m181.98 0h-29.7c-14.58 85.86-36.18 156.6-70.74 213.3 29.16 40.5 65.88 72.36 110.7 92.88-11.34 9.72-27 29.16-34.56 42.12-42.66-22.14-78.3-53.46-106.92-91.26-31.86 38.88-72.9 70.74-124.2 96.12-5.4-11.34-19.98-34.56-29.7-45.9 53.46-23.22 94.5-55.08 125.28-96.12-22.68-41.04-39.96-87.48-53.46-138.78-10.8 19.44-22.14 37.26-33.48 53.46-6.48-8.1-20.52-22.14-31.32-32.4v0.54H339.74V657.6l136.08-47.52c0.54 14.58 3.24 36.18 6.48 46.98-154.98 59.4-178.2 69.66-191.7 81-2.7-14.04-11.34-38.88-18.9-51.84 8.64-4.32 17.82-12.42 17.82-31.86V452.4h137.16V349.26H283.04v-49.68h193.32v188.46c40.5-55.08 68.58-138.24 84.78-224.64l49.68 9.18c-6.48 30.24-14.04 60.48-22.14 89.1h165.78v46.44z" p-id="3756"></path></svg>