<?xml version="1.0" standalone="no"?><!DOCTYPE svg PUBLIC "-//W3C//DTD SVG 1.1//EN"
  "http://www.w3.org/Graphics/SVG/1.1/DTD/svg11.dtd">
<svg class="icon" viewBox="0 0 1024 1024" version="1.1" xmlns="http://www.w3.org/2000/svg"
     width="200" height="200">
  <path
    d="M960 392.078222a98.602667 98.602667 0 0 1-98.588444 98.588445H148.366222A98.602667 98.602667 0 0 1 49.777778 392.078222V148.366222A98.602667 98.602667 0 0 1 148.366222 49.777778h713.059556a98.602667 98.602667 0 0 1 98.588444 98.588444v243.712z m-56.888889-243.712A41.699556 41.699556 0 0 0 861.411556 106.666667H148.366222A41.699556 41.699556 0 0 0 106.666667 148.366222v243.726222a41.699556 41.699556 0 0 0 41.699555 41.699556h713.059556a41.699556 41.699556 0 0 0 41.699555-41.699556V148.366222z"
    fill="#ffffff"></path>
  <path
    d="M163.555556 277.333333a14.222222 14.222222 0 0 1-14.222223-14.222222v-25.628444c0-36.352 17.720889-73.927111 56.32-73.927111h94.776889a14.222222 14.222222 0 1 1 0 28.444444H205.653333c-20.792889 0-27.875556 23.125333-27.875555 45.482667V263.111111a14.222222 14.222222 0 0 1-14.222222 14.222222zM152.092444 326.115556c-3.697778 0-7.409778-1.564444-10.097777-4.124445-2.702222-2.688-4.124444-6.4-4.124445-10.097778s1.422222-7.395556 4.124445-10.097777c5.404444-5.404444 14.791111-5.262222 20.053333 0 2.688 2.702222 4.266667 6.4 4.266667 10.097777s-1.564444 7.409778-4.124445 9.955556c-2.844444 2.688-6.4 4.266667-10.097778 4.266667zM661.333333 875.633778a98.602667 98.602667 0 0 1-98.588444 98.588444H148.366222A98.602667 98.602667 0 0 1 49.777778 875.633778V631.921778a98.602667 98.602667 0 0 1 98.588444-98.588445h414.392889a98.602667 98.602667 0 0 1 98.588445 98.588445v243.712z m-56.888889-243.712a41.699556 41.699556 0 0 0-41.699555-41.699556H148.366222A41.699556 41.699556 0 0 0 106.666667 631.921778v243.726222a41.699556 41.699556 0 0 0 41.699555 41.699556h414.392889a41.699556 41.699556 0 0 0 41.699556-41.699556V631.921778z"
    fill="#ffffff"></path>
  <path
    d="M974.222222 875.633778a98.602667 98.602667 0 0 1-98.588444 98.588444h-73.059556a98.602667 98.602667 0 0 1-98.588444-98.588444V631.921778a98.602667 98.602667 0 0 1 98.588444-98.588445h73.059556a98.602667 98.602667 0 0 1 98.588444 98.588445v243.712z m-56.888889-243.712a41.699556 41.699556 0 0 0-41.699555-41.699556h-73.059556a41.699556 41.699556 0 0 0-41.699555 41.699556v243.726222a41.699556 41.699556 0 0 0 41.699555 41.699556h73.059556a41.699556 41.699556 0 0 0 41.699555-41.699556V631.921778z"
    fill="#ffffff"></path>
</svg>
