<?xml version="1.0" standalone="no"?><!DOCTYPE svg PUBLIC "-//W3C//DTD SVG 1.1//EN" "http://www.w3.org/Graphics/SVG/1.1/DTD/svg11.dtd"><svg t="1676541681198" class="icon" viewBox="0 0 1166 1024" version="1.1" xmlns="http://www.w3.org/2000/svg" p-id="4311" xmlns:xlink="http://www.w3.org/1999/xlink" width="227.734375" height="200"><path d="M1127.537778 550.115556h-192.654222a38.115556 38.115556 0 1 1 0-76.231112h192.654222a38.115556 38.115556 0 1 1 0 76.231112z m-137.585778-139.946667a38.001778 38.001778 0 0 1-54.727111 0.284444 36.977778 36.977778 0 0 1 0-54.044444l127.630222-154.168889a37.973333 37.973333 0 0 1 54.698667-0.284444 36.977778 36.977778 0 0 1 0 54.044444zM580.266667 1024c-154.766222 0-281.884444-136.248889-281.884445-304.924444v-147.057778h88.462222v147.057778c0 119.751111 88.433778 217.884444 193.422223 217.884444s193.422222-98.133333 193.422222-217.884444v-147.057778h88.433778v147.057778C862.236444 887.751111 735.118222 1024 580.266667 1024z m193.422222-719.075556c0-119.751111-88.433778-217.884444-193.422222-217.884444s-193.422222 98.133333-193.422223 217.884444v147.057778h-88.433777v-147.057778C298.410667 136.248889 425.528889 0 580.295111 0s281.884444 136.248889 281.884445 304.924444v147.057778H773.688889v-147.057778zM231.224889 550.115556H38.684444a38.115556 38.115556 0 1 1 0-76.231112h192.654223a38.115556 38.115556 0 1 1 0 76.231112z m-55.409778-162.133334L48.696889 233.244444a36.977778 36.977778 0 0 1 0.256-54.044444 38.513778 38.513778 0 0 1 54.727111 0.284444l127.118222 155.022223a36.693333 36.693333 0 0 1-0.256 53.76 38.001778 38.001778 0 0 1-54.613333-0.284445z m-16.355555 252.871111a37.973333 37.973333 0 0 1 54.698666-0.284444 36.664889 36.664889 0 0 1 0.284445 53.76L87.324444 849.351111a38.229333 38.229333 0 0 1-54.698666 0 36.664889 36.664889 0 0 1-0.284445-53.76z m830.890666-25.6l126.833778 155.022223a36.693333 36.693333 0 0 1-0.341333 53.76 38.001778 38.001778 0 0 1-54.727111-0.284445l-126.833778-155.022222a36.977778 36.977778 0 0 1 0.369778-54.044445 37.973333 37.973333 0 0 1 54.812444 0.568889z" fill="#333333" p-id="4312"></path></svg>