<?xml version="1.0" standalone="no"?><!DOCTYPE svg PUBLIC "-//W3C//DTD SVG 1.1//EN" "http://www.w3.org/Graphics/SVG/1.1/DTD/svg11.dtd"><svg t="1676603643306" class="icon" viewBox="0 0 1024 1024" version="1.1" xmlns="http://www.w3.org/2000/svg" p-id="4161" xmlns:xlink="http://www.w3.org/1999/xlink" width="200" height="200"><path d="M682.666667 469.333333a213.333333 213.333333 0 0 0-128 42.666667V256a128 128 0 0 0-256 0v448a42.666667 42.666667 0 0 1-85.333334 0V256H128v448a128 128 0 0 0 256 0V256a42.666667 42.666667 0 0 1 85.333333 0v426.666667a213.333333 213.333333 0 1 0 213.333334-213.333334z m0 341.333334a128 128 0 1 1 128-128 128 128 0 0 1-128 128z" p-id="4162" fill="#ffffff"></path></svg>