<?xml version="1.0" standalone="no"?><!DOCTYPE svg PUBLIC "-//W3C//DTD SVG 1.1//EN" "http://www.w3.org/Graphics/SVG/1.1/DTD/svg11.dtd"><svg t="1676541497890" class="icon" viewBox="0 0 1024 1024" version="1.1" xmlns="http://www.w3.org/2000/svg" p-id="2020" xmlns:xlink="http://www.w3.org/1999/xlink" width="200" height="200"><path d="M934.08 444.16L707.84 217.813333c-37.333333-37.44-98.346667-37.44-135.786667 0L512 277.973333l-60.16-60.16c-37.44-37.44-98.346667-37.44-135.786667 0L89.813333 444.16c-37.44 37.44-37.44 98.346667 0 135.786667l226.24 226.24c18.666667 18.666667 43.306667 28.053333 67.84 28.053333s49.173333-9.386667 67.84-28.053333l60.16-60.16 60.16 60.16c18.666667 18.666667 43.306667 28.053333 67.84 28.053333s49.173333-9.386667 67.84-28.053333l226.24-226.24c37.546667-37.546667 37.546667-98.346667 0.106667-135.786667zM406.613333 760.853333c-12.48 12.48-32.746667 12.48-45.226666 0L135.146667 534.613333c-12.48-12.48-12.48-32.746667 0-45.226666l226.24-226.24c6.293333-6.293333 14.4-9.386667 22.613333-9.386667s16.426667 3.093333 22.613333 9.386667l60.16 60.16-120.96 120.853333c-37.44 37.44-37.44 98.346667 0 135.786667L466.773333 700.8l-60.16 60.053333zM512 368.426667l120.853333 120.853333c12.48 12.48 12.48 32.746667 0 45.226667L512 655.466667 391.146667 534.613333c-12.48-12.48-12.48-32.746667 0-45.226666L512 368.426667z m376.853333 166.186666L662.613333 760.853333c-12.48 12.48-32.746667 12.48-45.226666 0L557.226667 700.8l120.853333-120.853333c37.44-37.44 37.44-98.346667 0-135.786667L557.226667 323.2l60.16-60.16c6.293333-6.293333 14.4-9.386667 22.613333-9.386667s16.426667 3.093333 22.613333 9.386667l226.24 226.24c12.48 12.586667 12.48 32.853333 0 45.333333z" fill="#040000" p-id="2021"></path></svg>