<?xml version="1.0" standalone="no"?><!DOCTYPE svg PUBLIC "-//W3C//DTD SVG 1.1//EN" "http://www.w3.org/Graphics/SVG/1.1/DTD/svg11.dtd"><svg t="1676541546843" class="icon" viewBox="0 0 1024 1024" version="1.1" xmlns="http://www.w3.org/2000/svg" p-id="2400" xmlns:xlink="http://www.w3.org/1999/xlink" width="200" height="200"><path d="M945.6 752.7l-223.8-156c-22.4-15.6-53.1 0.4-53.1 27.7v69h-58.9c-20 0-25.1-11.9-33.1-30.2L512 509.8l64.7-152.1c8-18.6 25.1-30.7 45.1-30.7h46.9v67.3c0 27.3 30.7 43.3 53.1 27.7l223.8-156c19.3-13.4 19.3-42 0-55.4l-223.8-156c-22.4-15.6-53.1 0.4-53.1 27.7v61.9h-137c-35.8 0-68.3 21.6-82.6 43.8l-36.7 85.9-31.9-75.6c-14.3-32.9-46.7-54.2-82.6-54.2H113.6c-27.8 0-50.3 22.5-50.3 50.3v79.5c0 27.8 22.5 50.3 50.3 50.3H206c20 0 38.1 11.9 46.1 30.2l62.7 147.8-62.7 146.5c-8 29.8-26.1 41.9-46.1 41.9h-92.4c-27.8 0-50.3 22.8-50.3 51v80.7c0 28.2 22.5 51 50.3 51H298c35.8 0 68.3-21.6 82.6-55l34.2-80.4 34.4 81.2c14.3 32.9 46.7 54.2 82.6 54.2h136.9v63c0 27.3 30.7 43.3 53.1 27.7l223.8-156c19.2-13.3 19.2-41.9 0-55.3z" p-id="2401"></path></svg>