<?xml version="1.0" standalone="no"?><!DOCTYPE svg PUBLIC "-//W3C//DTD SVG 1.1//EN" "http://www.w3.org/Graphics/SVG/1.1/DTD/svg11.dtd"><svg t="1683798324192" class="icon" viewBox="0 0 1024 1024" version="1.1" xmlns="http://www.w3.org/2000/svg" p-id="3504" xmlns:xlink="http://www.w3.org/1999/xlink" width="200" height="200"><path d="M901.321448 897.391441 163.624103 897.391441c-23.779589 0-43.115983-20.996197-43.115983-46.821375L120.508119 288.197818c0-17.237593-12.880355-31.214932-28.764114-31.214932-15.874549 0-28.744671 13.977339-28.744671 31.214932l0 562.351781c0 60.241013 45.138036 109.25124 100.616582 109.25124L901.321448 959.800839c15.873526 0 28.743648-13.977339 28.743648-31.215956C930.065096 911.348314 917.194974 897.391441 901.321448 897.391441zM258.38635 846.851371l74.28282 0c35.111682 0 63.684438-28.371164 63.675228-63.263859L396.344398 511.98772c0-34.873252-28.563546-63.263859-63.675228-63.263859l-74.28282 0c-35.111682 0-63.675228 28.39163-63.675228 63.263859l0 271.598768C194.711122 818.480206 223.274668 846.851371 258.38635 846.851371zM257.554402 511.98772c0-0.398066 0.450255-0.835018 0.831948-0.835018l74.28282 0c0.38067 0 0.841158 0.437975 0.841158 0.835018l0 271.598768c0 0.398066-0.460488 0.854461-0.841158 0.854461l-74.28282 0c-0.381693 0-0.831948-0.456395-0.831948-0.854461L257.554402 511.98772zM512.093633 846.851371l74.262354 0c35.110659 0 63.693648-28.371164 63.693648-63.263859L650.049634 127.385249c0-34.892695-28.563546-63.263859-63.693648-63.263859l-74.262354 0c-35.110659 0-63.696718 28.371164-63.696718 63.263859l0 656.20124C448.396915 818.480206 476.97274 846.851371 512.093633 846.851371zM511.250428 127.385249c0-0.397043 0.441045-0.854461 0.842181-0.854461l74.262354 0c0.38988 0 0.839111 0.457418 0.839111 0.854461l0 656.20124c0 0.398066-0.440022 0.854461-0.839111 0.854461l-74.262354 0c-0.402159 0-0.842181-0.456395-0.842181-0.854461L511.250428 127.385249zM767.496533 846.851371l74.262354 0c35.120892 0 63.694671-28.371164 63.694671-63.263859L905.453558 383.629307c0-34.892695-28.573779-63.263859-63.694671-63.263859l-74.262354 0c-35.110659 0-63.684438 28.372188-63.684438 63.263859l0 399.958204C703.811072 818.480206 732.375641 846.851371 767.496533 846.851371zM766.654352 383.629307c0-0.3776 0.450255-0.833995 0.841158-0.833995l74.262354 0c0.390903 0 0.851391 0.457418 0.851391 0.833995l0 399.958204c0 0.398066-0.450255 0.854461-0.851391 0.854461l-74.262354 0c-0.390903 0-0.841158-0.456395-0.841158-0.854461L766.654352 383.629307z" fill="#bfbfbf" p-id="3505"></path></svg>