<?xml version="1.0" standalone="no"?><!DOCTYPE svg PUBLIC "-//W3C//DTD SVG 1.1//EN" "http://www.w3.org/Graphics/SVG/1.1/DTD/svg11.dtd"><svg t="1684923645545" class="icon" viewBox="0 0 1024 1024" version="1.1" xmlns="http://www.w3.org/2000/svg" p-id="5018" xmlns:xlink="http://www.w3.org/1999/xlink" width="200" height="200"><path d="M362.496 444.61056l-40.06912 0L322.42688 369.2544l39.80288 0 0-40.07936 35.55328 0 0 39.54688 40.06912 0 0 75.63264-40.06912 0 0 0.256L362.496 444.61056zM226.32448 798.27968c0.02048 1.86368 0.0512 3.25632 0.07168 4.16768 0.01024 0.55296-0.09216 1.0752-0.12288 1.62816 1.24928 30.8224 26.65472 55.52128 57.77408 55.52128l513.90464 0 0-56.60672c0-11.30496 9.17504-20.48 20.48-20.48s20.48 9.17504 20.48 20.48l0 77.08672c0 11.30496-9.17504 20.48-20.48 20.48L280.95488 900.5568c-1.06496 0-2.08896-0.1536-3.1232-0.31744-51.6096-3.2256-92.64128-46.12096-92.64128-98.53952 0-1.19808 0.14336-2.3552 0.18432-3.54304-0.63488-60.81536 0-523.38688 0.07168-573.71648-0.08192-0.7168-0.21504-1.40288-0.21504-2.12992 0-54.50752 44.3392-98.84672 98.84672-98.84672l32.72704 0 496.60928 0 5.00736 0c11.30496 0 20.48 9.17504 20.48 20.48l0 578.83648c0 11.30496-9.17504 20.48-20.48 20.48-0.12288 0-0.22528-0.03072-0.34816-0.03072-1.50528 0.3584-3.072 0.59392-4.68992 0.59392L284.04736 743.82336C253.2864 743.81312 228.11648 767.95904 226.32448 798.27968zM594.37056 329.17504l159.75424 0 0 35.29728-40.06912 0 0 40.07936-39.80288 0 0 40.06912-40.07936 0 0 39.81312-39.81312 0 0 84.39808L798.72 568.832 798.72 524.4928 638.69952 524.4928l0-35.29728 40.06912 0L678.76864 449.1264l39.80288 0 0-40.07936 40.07936 0L758.65088 369.2544 798.72 369.2544l0-84.66432L594.37056 284.59008 594.37056 329.17504zM504.03328 449.1264l95.19104 0 0-44.58496-95.19104 0L504.03328 449.1264zM278.10816 568.81152l44.32896 0 0-79.616L362.496 489.19552l0-0.256 75.35616 0 0 79.88224 44.58496 0L482.43712 364.47232l-40.07936 0 0-40.33536-40.06912 0 0-39.54688-44.32896 0 0 40.06912-40.06912 0 0 40.07936-39.81312 0L278.07744 568.81152z" p-id="5019" fill="#8a8a8a"></path></svg>