<?xml version="1.0" standalone="no"?><!DOCTYPE svg PUBLIC "-//W3C//DTD SVG 1.1//EN" "http://www.w3.org/Graphics/SVG/1.1/DTD/svg11.dtd"><svg t="1676547107419" class="icon" viewBox="0 0 1024 1024" version="1.1" xmlns="http://www.w3.org/2000/svg" p-id="7077" xmlns:xlink="http://www.w3.org/1999/xlink" width="200" height="200"><path d="M512 298.666667V213.333333c0-46.933333-38.4-85.333333-85.333333-85.333333H170.666667c-46.933333 0-85.333333 38.4-85.333334 85.333333v597.333334c0 46.933333 38.4 85.333333 85.333334 85.333333h682.666666c46.933333 0 85.333333-38.4 85.333334-85.333333V384c0-46.933333-38.4-85.333333-85.333334-85.333333h-341.333333zM256 810.666667H170.666667v-85.333334h85.333333v85.333334z m0-170.666667H170.666667v-85.333333h85.333333v85.333333z m0-170.666667H170.666667V384h85.333333v85.333333z m0-170.666666H170.666667V213.333333h85.333333v85.333334z m170.666667 512H341.333333v-85.333334h85.333334v85.333334z m0-170.666667H341.333333v-85.333333h85.333334v85.333333z m0-170.666667H341.333333V384h85.333334v85.333333z m0-170.666666H341.333333V213.333333h85.333334v85.333334z m384 512h-298.666667v-85.333334h85.333333v-85.333333h-85.333333v-85.333333h85.333333v-85.333334h-85.333333V384h298.666667c23.466667 0 42.666667 19.2 42.666666 42.666667v341.333333c0 23.466667-19.2 42.666667-42.666666 42.666667z m-42.666667-341.333334h-85.333333v85.333334h85.333333v-85.333334z m0 170.666667h-85.333333v85.333333h85.333333v-85.333333z" p-id="7078"></path></svg>