<?xml version="1.0" standalone="no"?><!DOCTYPE svg PUBLIC "-//W3C//DTD SVG 1.1//EN" "http://www.w3.org/Graphics/SVG/1.1/DTD/svg11.dtd"><svg t="1676541578000" class="icon" viewBox="0 0 1024 1024" version="1.1" xmlns="http://www.w3.org/2000/svg" p-id="2479" xmlns:xlink="http://www.w3.org/1999/xlink" width="200" height="200"><path d="M768 640l0 86.016-86.016 0 0-86.016 86.016 0zM768 470.016l0 84.010667-86.016 0 0-84.010667 86.016 0zM854.016 809.984l0-425.984-342.016 0 0 86.016 86.016 0 0 84.010667-86.016 0 0 86.016 86.016 0 0 86.016-86.016 0 0 84.010667 342.016 0zM425.984 297.984l0-84.010667-84.010667 0 0 84.010667 84.010667 0zM425.984 470.016l0-86.016-84.010667 0 0 86.016 84.010667 0zM425.984 640l0-86.016-84.010667 0 0 86.016 84.010667 0zM425.984 809.984l0-84.010667-84.010667 0 0 84.010667 84.010667 0zM256 297.984l0-84.010667-86.016 0 0 84.010667 86.016 0zM256 470.016l0-86.016-86.016 0 0 86.016 86.016 0zM256 640l0-86.016-86.016 0 0 86.016 86.016 0zM256 809.984l0-84.010667-86.016 0 0 84.010667 86.016 0zM512 297.984l425.984 0 0 598.016-852.010667 0 0-768 425.984 0 0 169.984z" fill="#444444" p-id="2480"></path></svg>