<?xml version="1.0" standalone="no"?><!DOCTYPE svg PUBLIC "-//W3C//DTD SVG 1.1//EN" "http://www.w3.org/Graphics/SVG/1.1/DTD/svg11.dtd"><svg t="1683798362871" class="icon" viewBox="0 0 1024 1024" version="1.1" xmlns="http://www.w3.org/2000/svg" p-id="4506" xmlns:xlink="http://www.w3.org/1999/xlink" width="200" height="200"><path d="M734.764038 555.695175 511.171634 555.695175 511.171634 779.287579 734.764038 779.287579 734.764038 555.695175Z" p-id="4507" fill="#bfbfbf"></path><path d="M824.201 153.227824l-44.717458 0 0-89.436962-89.436962 0 0 89.436962-357.747847 0 0-89.436962-89.436962 0 0 89.436962-44.718481 0c-49.194422 0-89.436962 40.24254-89.436962 89.436962l0 626.057709c0 49.196469 40.24254 89.436962 89.436962 89.436962l626.058732 0c49.195445 0 89.436962-40.240493 89.436962-89.436962L913.638985 242.664785C913.637961 193.470363 873.396445 153.227824 824.201 153.227824zM824.201 868.723517l-626.058732 0 0-491.90329 626.058732 0L824.201 868.723517z" p-id="4508" fill="#bfbfbf"></path></svg>