<?xml version="1.0" standalone="no"?><!DOCTYPE svg PUBLIC "-//W3C//DTD SVG 1.1//EN" "http://www.w3.org/Graphics/SVG/1.1/DTD/svg11.dtd"><svg t="1684923670260" class="icon" viewBox="0 0 1024 1024" version="1.1" xmlns="http://www.w3.org/2000/svg" p-id="5673" xmlns:xlink="http://www.w3.org/1999/xlink" width="200" height="200"><path d="M961.535438 417.792758c-25.823968 0-49.535938 20.575974-49.535938 46.207942V896.00016h-799.999V112.00114h353.599558C491.264026 112.00114 512 89.729168 512 64.0012c0-25.631968-22.335972-47.99994-47.99994-47.99994H65.600558C31.392601 16.00126 16.00062 29.729243 16.00062 64.0012v879.9989c0 34.143957 15.327981 47.99994 49.599938 47.99994h895.99888c34.111957 0 46.399942-15.359981 46.399942-49.535938V464.2567a46.399942 46.399942 0 0 0-46.463942-46.495942zM815.99962 112.00114l63.99992 63.99992L448.00008 608.00052h-79.9999v-79.9999l447.99944-415.99948zM811.775625 0.00128c-9.471988 0-20.543974 8.703989-27.775965 15.99998L288.00028 495.77666V688.00042h207.99974L975.99942 192.00104c19.551976-19.551976 7.359991-40.767949 0-47.99994l-127.99984-127.99984c-16.447979-16.447979-26.943966-15.99998-36.223955-15.99998z" p-id="5674" fill="#8a8a8a"></path></svg>