<?xml version="1.0" standalone="no"?><!DOCTYPE svg PUBLIC "-//W3C//DTD SVG 1.1//EN" "http://www.w3.org/Graphics/SVG/1.1/DTD/svg11.dtd"><svg t="1676541474878" class="icon" viewBox="0 0 1024 1024" version="1.1" xmlns="http://www.w3.org/2000/svg" p-id="1736" xmlns:xlink="http://www.w3.org/1999/xlink" width="200" height="200"><path d="M685.226667 338.773333c25.6 25.557333 56.448 38.314667 92.586666 38.314667 36.181333 0 67.072-12.8 92.629334-38.314667 25.6-25.6 38.357333-56.448 38.357333-92.586666 0-36.181333-12.8-67.072-38.357333-92.629334-25.6-25.6-56.448-38.357333-92.586667-38.357333-36.181333 0-67.029333 12.8-92.586667 38.357333-25.6 25.6-38.4 56.448-38.4 92.586667 0 36.181333 12.8 67.029333 38.4 92.586667zM334.805333 258.986667h206.762667a40.789333 40.789333 0 0 0 29.952-12.416 40.789333 40.789333 0 0 0 12.373333-29.952 40.789333 40.789333 0 0 0-12.373333-29.952 40.789333 40.789333 0 0 0-29.952-12.373334H334.762667a154.624 154.624 0 0 0-113.493334 46.976 154.624 154.624 0 0 0-46.976 113.493334v206.762666c0 11.690667 4.138667 21.674667 12.373334 29.952 8.277333 8.277333 18.261333 12.373333 29.952 12.373334a40.789333 40.789333 0 0 0 29.952-12.373334 40.789333 40.789333 0 0 0 12.373333-29.952V334.762667c0-20.906667 7.424-38.826667 22.186667-53.589334 14.848-14.805333 32.725333-22.186667 53.632-22.186666z m475.818667-45.568c9.002667 9.045333 13.525333 19.968 13.525333 32.725333 0 12.8-4.522667 23.68-13.525333 32.725333a44.586667 44.586667 0 0 1-32.725333 13.568c-12.8 0-23.68-4.522667-32.725334-13.568a44.586667 44.586667 0 0 1-13.568-32.725333c0-12.8 4.522667-23.68 13.568-32.725333 9.045333-9.002667 19.925333-13.525333 32.725334-13.525334s23.68 4.522667 32.725333 13.525334zM742.826667 742.826667c-14.805333 14.805333-32.64 22.186667-53.589334 22.186666h-206.762666a40.789333 40.789333 0 0 0-29.952 12.416 40.789333 40.789333 0 0 0-12.373334 29.952c0 11.690667 4.096 21.674667 12.373334 29.952 8.277333 8.277333 18.261333 12.373333 29.952 12.373334h206.762666a154.624 154.624 0 0 0 113.493334-46.976 154.624 154.624 0 0 0 46.976-113.493334v-206.762666a40.789333 40.789333 0 0 0-12.373334-29.952 40.789333 40.789333 0 0 0-29.952-12.373334 40.789333 40.789333 0 0 0-29.952 12.373334 40.789333 40.789333 0 0 0-12.373333 29.952v206.762666c0 20.906667-7.424 38.826667-22.186667 53.589334zM153.6 870.442667c25.6 25.6 56.448 38.357333 92.586667 38.357333 36.181333 0 67.029333-12.8 92.586666-38.357333 25.6-25.6 38.4-56.448 38.4-92.586667 0-36.181333-12.8-67.029333-38.4-92.586667-25.557333-25.6-56.405333-38.4-92.586666-38.4-36.138667 0-66.986667 12.8-92.586667 38.4-25.6 25.557333-38.357333 56.405333-38.357333 92.586667 0 36.138667 12.8 66.986667 38.357333 92.586667z m125.312-125.312c9.045333 9.045333 13.568 19.925333 13.568 32.725333s-4.522667 23.68-13.568 32.725333a44.586667 44.586667 0 0 1-32.725333 13.525334c-12.8 0-23.68-4.522667-32.725334-13.525334a44.586667 44.586667 0 0 1-13.525333-32.725333c0-12.8 4.522667-23.68 13.525333-32.725333 9.045333-9.045333 19.968-13.568 32.725334-13.568 12.8 0 23.68 4.522667 32.725333 13.568z" fill="#666666" p-id="1737"></path></svg>