<?xml version="1.0" standalone="no"?><!DOCTYPE svg PUBLIC "-//W3C//DTD SVG 1.1//EN" "http://www.w3.org/Graphics/SVG/1.1/DTD/svg11.dtd"><svg t="1684386385985" class="icon" viewBox="0 0 1045 1024" version="1.1" xmlns="http://www.w3.org/2000/svg" p-id="1794" xmlns:xlink="http://www.w3.org/1999/xlink" width="204.1015625" height="200"><path d="M1001.523355 300.369794c11.669588 0 21.151128 9.48154 21.151128 21.151128v656.176488c0 6.167758-2.679566 11.637877-6.897107 15.506599a31.504716 31.504716 0 0 1-27.493295 16.204238H39.606835c-1.90265 0-3.789445-0.221976-5.67624-0.570795l-1.648963-0.364675a32.234065 32.234065 0 0 1-3.932144-1.236722c-0.523229-0.190265-1.062313-0.364675-1.585542-0.602506a34.29527 34.29527 0 0 1-4.36024-2.362458c-0.190265-0.126843-0.38053-0.20612-0.55494-0.332963l-0.095132-0.047567c-0.491518-0.332964-0.872048-0.76106-1.331855-1.109879-1.157446-0.903759-2.314891-1.775807-3.345493-2.83812-0.745205-0.745205-1.347711-1.585542-1.997783-2.394168-0.634217-0.808626-1.316-1.537976-1.886795-2.394168-0.58665-0.887903-1.014747-1.855084-1.52212-2.774698-0.459807-0.903759-0.967181-1.744096-1.363566-2.663711-0.412241-1.030602-0.665928-2.07706-0.967181-3.139372-0.269542-0.919614-0.602506-1.807518-0.792771-2.742988a32.503608 32.503608 0 0 1-0.507373-4.962746c0-0.396385-0.110988-0.776915-0.110988-1.173301v-0.126843V42.528981a31.710837 31.710837 0 0 1 63.437529 0v832.504595l274.996376-402.584927a31.710837 31.710837 0 0 1 42.984039-9.021733L553.3541 565.821208l332.377135-475.503996-66.640324 12.747756a31.710837 31.710837 0 0 1-11.907419-62.295938l145.806427-27.905537a31.66327 31.66327 0 0 1 37.117535 25.19426l27.842114 145.838138a31.694981 31.694981 0 0 1-31.171752 37.688329c-14.919949 0-28.222645-10.591419-31.124186-25.78091l-14.222311-74.457044-353.337997 505.502447a31.774258 31.774258 0 0 1-42.793774 8.736336l-163.738906-102.235738L99.714726 945.986574h90.153909v-20.421779a21.135273 21.135273 0 1 1 42.2864 0v20.421779h115.807976V753.89818a21.151128 21.151128 0 1 1 42.286401 0v192.088394h115.823831v-155.605076a21.151128 21.151128 0 0 1 42.2864 0v155.605076h115.823831V687.432267a21.151128 21.151128 0 0 1 42.286401 0v258.554307h115.807976V463.696458a21.135273 21.135273 0 0 1 42.2864 0v482.290116h115.823831V321.520922c0-11.669588 9.465685-21.151128 21.135273-21.151128z m-316.188753-86.332753a21.151128 21.151128 0 0 1-21.151128-21.151128V29.03602a21.151128 21.151128 0 0 1 42.286401 0v163.849893c0 11.669588-9.465685 21.151128-21.135273 21.151128z m-158.126087 192.120104a21.166983 21.166983 0 0 1-21.151128-21.151128V29.03602a21.166983 21.166983 0 0 1 42.302256 0v355.969997c0 11.669588-9.48154 21.151128-21.151128 21.151128z m-158.094376-89.757523a21.151128 21.151128 0 0 1-21.151128-21.151128V29.03602a21.151128 21.151128 0 0 1 42.286401 0v266.212474c0 11.685443-9.449829 21.151128-21.135273 21.151128z m-158.110232 182.369022a21.135273 21.135273 0 0 1-21.135272-21.135273V29.03602a21.135273 21.135273 0 1 1 42.2864 0v448.597351c0 11.653732-9.48154 21.135273-21.151128 21.135273z" fill="#FF7878" p-id="1795"></path></svg>