<?xml version="1.0" standalone="no"?><!DOCTYPE svg PUBLIC "-//W3C//DTD SVG 1.1//EN" "http://www.w3.org/Graphics/SVG/1.1/DTD/svg11.dtd"><svg t="1676547219055" class="icon" viewBox="0 0 1024 1024" version="1.1" xmlns="http://www.w3.org/2000/svg" p-id="7787" xmlns:xlink="http://www.w3.org/1999/xlink" width="200" height="200"><path d="M810.666667 213.333333v597.333334H213.333333V213.333333h597.333334M170.666667 128c-21.333333 0-42.666667 21.333333-42.666667 42.666667v682.666666c0 25.6 17.066667 42.666667 42.666667 42.666667h682.666666c25.6 0 42.666667-17.066667 42.666667-42.666667V170.666667c0-25.6-17.066667-42.666667-42.666667-42.666667H170.666667z" p-id="7788"></path><path d="M725.333333 379.733333c0-25.6-17.066667-42.666667-42.666666-42.666666h-213.333334v-21.333334c0-25.6-21.333333-42.666667-42.666666-42.666666-25.6 0-42.666667 17.066667-42.666667 42.666666v21.333334H341.333333c-25.6 0-42.666667 17.066667-42.666666 42.666666s17.066667 42.666667 42.666666 42.666667h42.666667v21.333333c0 25.6 17.066667 42.666667 42.666667 42.666667s42.666667-17.066667 42.666666-42.666667v-21.333333h213.333334c25.6 0 42.666667-17.066667 42.666666-42.666667zM298.666667 648.533333c0 25.6 17.066667 42.666667 42.666666 42.666667h213.333334v21.333333c0 25.6 21.333333 42.666667 42.666666 42.666667 25.6 0 42.666667-17.066667 42.666667-42.666667v-21.333333h42.666667c25.6 0 42.666667-17.066667 42.666666-42.666667s-17.066667-42.666667-42.666666-42.666666h-42.666667v-21.333334c0-25.6-17.066667-42.666667-42.666667-42.666666s-42.666667 17.066667-42.666666 42.666666v21.333334H341.333333c-21.333333 0-42.666667 17.066667-42.666666 42.666666z" p-id="7789"></path></svg>