<?xml version="1.0" standalone="no"?><!DOCTYPE svg PUBLIC "-//W3C//DTD SVG 1.1//EN" "http://www.w3.org/Graphics/SVG/1.1/DTD/svg11.dtd"><svg t="1684923705463" class="icon" viewBox="0 0 1024 1024" version="1.1" xmlns="http://www.w3.org/2000/svg" p-id="6124" xmlns:xlink="http://www.w3.org/1999/xlink" width="200" height="200"><path d="M371.2 234.66496h194.12992c21.34016 0 38.4-17.06496 38.4-38.4V134.4c0-21.33504-17.05984-38.4-38.4-38.4H371.2a38.23616 38.23616 0 0 0-38.4 38.4v61.86496c2.13504 21.33504 17.06496 38.4 38.4 38.4zM377.6 140.8h183.47008v51.2H377.6v-51.2z m285.87008 17.06496h102.4c23.45984 0 42.65984 19.2 42.65984 42.66496V428.8c0 12.8 8.54016 21.33504 21.34016 21.33504s21.32992-8.53504 21.32992-21.33504V200.53504c0-46.93504-38.4-85.33504-85.32992-85.33504h-102.4c-12.8 0-21.34016 8.53504-21.34016 21.33504s10.67008 21.32992 21.34016 21.32992zM251.73504 345.6C241.06496 345.6 230.4 354.13504 230.4 366.93504s10.66496 21.33504 21.33504 21.33504h448c10.67008 0 21.34016-8.53504 21.34016-21.33504s-10.67008-21.33504-21.34016-21.33504h-448z m451.4304 298.67008h-451.4304C241.06496 644.27008 230.4 652.8 230.4 665.6s10.66496 21.32992 21.33504 21.32992h451.4304c10.65984 0 21.32992-8.52992 21.32992-21.32992s-8.52992-21.32992-21.32992-21.32992z" fill="#8a8a8a" p-id="6125"></path><path d="M469.33504 874.67008h-294.4c-23.46496 0-42.66496-19.2-42.66496-42.67008V200.53504c0-23.46496 19.2-42.66496 42.66496-42.66496h102.4c12.8 0 21.33504-8.53504 21.33504-21.33504S290.13504 115.2 277.33504 115.2h-102.4C128 115.2 89.6 153.6 89.6 200.53504V832c0 46.92992 38.4 85.32992 85.33504 85.32992h294.4c12.8 0 21.33504-8.52992 21.33504-21.32992s-10.67008-21.32992-21.33504-21.32992zM558.92992 893.87008a32.00512 32.00512 0 1 0 64.01024-0.01024 32.00512 32.00512 0 0 0-64.01024 0.01024zM688.21504 895.99488c0 12.8 8.54016 21.33504 21.34016 21.33504h56.31488c46.92992 0 85.32992-38.4 85.32992-85.33504V398.90944c0-12.8-8.52992-21.32992-21.32992-21.32992s-21.34016 8.52992-21.34016 21.32992v433.08544c0 23.47008-19.2 42.67008-42.65984 42.67008h-56.31488c-10.67008 0-21.34016 8.52992-21.34016 21.32992z" fill="#8a8a8a" p-id="6126"></path></svg>