<?xml version="1.0" standalone="no"?><!DOCTYPE svg PUBLIC "-//W3C//DTD SVG 1.1//EN" "http://www.w3.org/Graphics/SVG/1.1/DTD/svg11.dtd"><svg t="1676541612986" class="icon" viewBox="0 0 1024 1024" version="1.1" xmlns="http://www.w3.org/2000/svg" p-id="3195" xmlns:xlink="http://www.w3.org/1999/xlink" width="200" height="200"><path d="M942.427421 234.839536a17.254917 17.254917 0 1 0-28.988261 18.715833 475.626037 475.626037 0 0 1 76.013661 258.559181c0 263.229511-214.145024 477.386038-477.386038 477.386038s-477.386038-214.156527-477.386038-477.386038 214.145024-477.386038 477.386038-477.386039a475.683553 475.683553 0 0 1 166.659492 29.908523 17.254917 17.254917 0 0 0 12.055436-32.335714 511.964892 511.964892 0 1 0 251.64571 202.538216z" fill="#333333" p-id="3196"></path><path d="M796.059711 128.365195a482.807533 482.807533 0 0 1 34.969965 28.562639 17.254917 17.254917 0 1 0 23.064073-25.663813c-11.963409-10.755565-24.571002-21.050999-37.47768-30.621726a17.256067 17.256067 0 1 0-20.556358 27.7229zM599.756272 208.968664a25.01963 25.01963 0 0 0-49.23403-6.257784H411.206041a25.01963 25.01963 0 1 0-47.393505 15.655962l-113.594871 82.53602a25.008126 25.008126 0 1 0-30.012052 39.640296l-43.470888 133.80613c-0.414118 0-0.816733-0.057516-1.23085-0.057517a25.031133 25.031133 0 0 0 0 50.062266c0.552157 0 1.081308 0 1.621962-0.080522l43.079776 132.575279a25.008126 25.008126 0 1 0 29.19532 40.318989l114.36559 83.088178a25.008126 25.008126 0 1 0 47.393505 15.655961h139.304697a25.01963 25.01963 0 1 0 47.105924-16.357661l128.065994-93.050016 1.311374 0.609673 0.172549-0.379608 63.268029 53.800831a36.350359 36.350359 0 1 0 8.328373-9.352165l-64.809468-55.146714 49.314553-151.84327c0.586667 0 1.150328 0.092026 1.748498 0.092026a25.031133 25.031133 0 0 0 0-50.062266c-0.414118 0-0.816733 0-1.230851 0.057516l-43.470887-133.73711a25.008126 25.008126 0 1 0-29.908523-39.697813l-112.663105-81.857326a24.927603 24.927603 0 0 0 2.059087-10.019355z m-35.084998 22.91453a24.467472 24.467472 0 0 0 14.218051 1.736995l45.668014 103.195907a25.05414 25.05414 0 0 0-8.052295 10.836088l-111.880882-12.273998a24.870087 24.870087 0 0 0-5.038435-13.803934z m-171.398843 243.22531a24.501982 24.501982 0 0 0-11.503278-0.253072l-46.208668-99.043224a24.973617 24.973617 0 0 0 8.730988-16.104589l112.801145-12.366024a25.065643 25.065643 0 0 0 5.590593 7.592164z m80.384907-114.204544a24.605512 24.605512 0 0 0 13.148247-0.322092l70.00895 121.267557a24.973617 24.973617 0 0 0-6.303797 11.204193h-139.304697a24.973617 24.973617 0 0 0-6.993993-11.882886z m-103.115384 119.634091a24.98512 24.98512 0 0 0-7.741706 12.56158h-93.004003a25.008126 25.008126 0 0 0-8.052295-12.849161l53.110635-98.928192a24.432963 24.432963 0 0 0 9.375171 0z m-100.745709 25.008127h93.004003a25.008126 25.008126 0 0 0 8.052294 12.826155l-45.714027 97.984922a24.363943 24.363943 0 0 0-11.296219 0l-52.408934-97.651327a25.01963 25.01963 0 0 0 8.362883-13.15975z m112.283496 18.278709a24.582505 24.582505 0 0 0 10.744062-0.218563l69.019668 119.507556a25.05414 25.05414 0 0 0-5.349024 8.052294l-112.122451-12.297004a24.927603 24.927603 0 0 0-8.155824-16.691256z m21.856229-6.096738a24.973617 24.973617 0 0 0 7.270071-12.181971h139.304697a24.98512 24.98512 0 0 0 6.614385 11.503278l-69.295747 120.082719a24.709041 24.709041 0 0 0-15.26485-0.448628z m164.059751 5.636607a23.949825 23.949825 0 0 0 10.675042 0.621177l45.391935 97.306228a24.973617 24.973617 0 0 0-9.145106 17.254917l-112.271993 12.308508a25.008126 25.008126 0 0 0-4.34824-6.763928z m22.166817-4.371246a25.008126 25.008126 0 0 0 8.823014-13.458835h91.750146a25.01963 25.01963 0 0 0 8.443406 13.251776l-52.523968 97.881393a24.28342 24.28342 0 0 0-11.250206-0.563661z m100.561656-25.962899h-91.796158a25.008126 25.008126 0 0 0-8.512426-13.228769l45.921086-98.422047a23.604727 23.604727 0 0 0 9.317655-0.448628l53.202661 99.146753a25.01963 25.01963 0 0 0-8.178831 12.975698z m-111.673823-18.405244a24.409956 24.409956 0 0 0-11.503278 0.66719l-69.997447-121.244551a25.065643 25.065643 0 0 0 4.520789-6.407326l113.008203 12.389031a24.973617 24.973617 0 0 0 9.72027 16.518707zM411.206041 215.226447h139.304697a24.893094 24.893094 0 0 0 4.325233 8.903537l-65.108554 89.610536a24.858584 24.858584 0 0 0-19.279494-0.391111l-64.211298-88.379686a24.939107 24.939107 0 0 0 4.969416-9.743276z m-24.156883 18.77335a24.927603 24.927603 0 0 0 9.076086-1.725492l64.234304 88.402692a24.904597 24.904597 0 0 0-5.648109 14.379097l-112.018921 12.285501a25.065643 25.065643 0 0 0-7.05151-9.789289l46.047622-104.139176a25.077146 25.077146 0 0 0 5.314514 0.586667z m-17.254917-4.440266l-45.380432 102.540221a24.962113 24.962113 0 0 0-25.203682 9.950335l-41.411801-19.26799a24.156884 24.156884 0 0 0-0.885753-11.284716zM229.672811 351.908397l8.397393 123.522199a25.05414 25.05414 0 0 0-16.691257 17.623022h-21.672175a25.031133 25.031133 0 0 0-11.031644-14.954261z m0.115033 293.920256l-40.767618-125.477756a25.031133 25.031133 0 0 0 10.686546-14.804719h21.660672a25.05414 25.05414 0 0 0 16.748773 17.634525z m23.121588-311.520272l41.664874 19.394527a24.824074 24.824074 0 0 0 8.892033 22.235836l-52.915079 98.640609-8.972556-131.965605a25.042636 25.042636 0 0 0 11.330728-8.305367z m-11.192689 320.492829l8.834517-129.883512L302.718626 622.131901a24.939107 24.939107 0 0 0-8.31687 18.6008v1.242354a25.215185 25.215185 0 0 0 0.184053 2.898826l-40.963173 19.106945a25.065643 25.065643 0 0 0-11.905893-9.168112z m14.827725 32.048133a24.927603 24.927603 0 0 0 1.54144-8.592949c0-0.851243 0-1.690982-0.126536-2.507714l41.135722-19.187468a24.962113 24.962113 0 0 0 25.203682 9.950335l45.380432 102.540221z m139.52326 79.487651a24.743551 24.743551 0 0 0-14.413608-1.150328l-46.070628-104.116169a25.065643 25.065643 0 0 0 7.051509-9.78929l112.018922 12.285501a24.904597 24.904597 0 0 0 5.648109 14.379098z m154.431507 17.047858H411.206041a24.939107 24.939107 0 0 0-4.969416-9.743276l64.211298-88.379685a24.858584 24.858584 0 0 0 19.279494-0.391112l65.108554 89.610536a24.893094 24.893094 0 0 0-4.325233 8.91504z m24.156884-18.77335a24.9161 24.9161 0 0 0-10.053865 2.116604l-65.13156-89.645046a24.870087 24.870087 0 0 0 5.038436-13.803934l111.880882-12.273997a25.05414 25.05414 0 0 0 8.052294 10.836087l-45.668013 103.195908a25.088649 25.088649 0 0 0-4.049154-0.414118z m16.104589 4.428762l45.299909-102.379174a24.709041 24.709041 0 0 0 24.398453-10.617526l52.247889 24.375446z m140.178946-416.706246l40.848141 125.730829a25.031133 25.031133 0 0 0-11.031644 14.954261h-21.660673a25.05414 25.05414 0 0 0-16.518707-17.554002z m8.155824 153.21216h21.660673a25.031133 25.031133 0 0 0 10.583016 14.724196l-40.537552 124.810566-8.28236-121.934747a25.05414 25.05414 0 0 0 16.576223-17.600015z m-21.131521 163.553607l-53.294687-24.847081c0.06902-0.747713 0.115033-1.506929 0.115032-2.300655v-0.621177-0.621177a24.95061 24.95061 0 0 0-7.362098-17.726552l52.627497-98.076948 9.651251 142.08849z m1.081308-326.428521l-8.961054 131.908089-53.398216-99.503355a24.939107 24.939107 0 0 0 8.132817-18.405244c0-0.77072 0-1.529936-0.115033-2.300656l42.884221-20.0042a25.042636 25.042636 0 0 0 11.468768 8.305366z m-15.471909-31.254406a24.156884 24.156884 0 0 0-0.908759 11.434258l-42.21703 19.693612a24.709041 24.709041 0 0 0-24.398453-10.617525l-45.345922-102.528717z" fill="#333333" p-id="3197"></path></svg>