<?xml version="1.0" standalone="no"?><!DOCTYPE svg PUBLIC "-//W3C//DTD SVG 1.1//EN" "http://www.w3.org/Graphics/SVG/1.1/DTD/svg11.dtd"><svg t="1676541551232" class="icon" viewBox="0 0 1024 1024" version="1.1" xmlns="http://www.w3.org/2000/svg" p-id="2540" xmlns:xlink="http://www.w3.org/1999/xlink" width="200" height="200"><path d="M319.5 608a160 160 0 1 0 121 55.3l33.5-45.7a114 114 0 0 0 37.5 6.4 111.5 111.5 0 0 0 54.2-14l87.4 88.5a111.5 111.5 0 1 0 45.3-45.2l-87.9-88.9a112.1 112.1 0 0 0-7.5-117l78.7-107.7a128.1 128.1 0 1 0-49.2-41.1l-79.8 109.2a112.7 112.7 0 0 0-92.6 4.6l-88.7-89.7a112.1 112.1 0 1 0-44.1 46.4l86.7 87.7a112 112 0 0 0 8.4 123l-32.6 44.4a159.6 159.6 0 0 0-70.3-16.2z m0 248a88 88 0 1 1 88-88 88.1 88.1 0 0 1-88 88z m472-104a40 40 0 1 1-40-40 40 40 0 0 1 40 40z m-55-584a56 56 0 1 1-56 56 56 56 0 0 1 56-56z m-185 344a40 40 0 1 1-40-40 40 40 0 0 1 40 40z m-320-240a40 40 0 1 1 40 40 40 40 0 0 1-40-40z" p-id="2541"></path></svg>