<?xml version="1.0" standalone="no"?><!DOCTYPE svg PUBLIC "-//W3C//DTD SVG 1.1//EN" "http://www.w3.org/Graphics/SVG/1.1/DTD/svg11.dtd"><svg t="1676541455952" class="icon" viewBox="0 0 1024 1024" version="1.1" xmlns="http://www.w3.org/2000/svg" p-id="1590" xmlns:xlink="http://www.w3.org/1999/xlink" width="200" height="200"><path d="M256 568.888889h84.309333a28.444444 28.444444 0 1 1 0 56.888889H256c-30.663111 0-56.888889-22.983111-56.888889-53.361778V224.085333c0-30.378667 26.225778-53.361778 56.888889-53.361777h341.333333c30.663111 0 56.888889 22.983111 56.888889 53.361777v348.387556c0 30.378667-26.225778 53.361778-56.888889 53.361778H512a28.444444 28.444444 0 1 1 0-56.888889h85.333333c0.796444 0 0 0.682667 0 3.584V227.555556h-341.333333c-0.796444 0 0-0.682667 0-3.584V568.888889zM796.444444 455.111111h-84.423111a28.444444 28.444444 0 0 1 0-56.888889H796.444444c30.663111 0 56.888889 22.983111 56.888889 53.361778v348.444444c0 30.321778-26.225778 53.304889-56.888889 53.304889H455.111111c-30.663111 0-56.888889-22.983111-56.888889-53.361777V451.640889C398.222222 421.205333 424.448 398.222222 455.111111 398.222222h85.333333a28.444444 28.444444 0 0 1 0 56.888889H455.111111c-0.796444 0 0-0.682667 0-3.584V796.444444h341.333333c0.796444 0 0 0.682667 0 3.584V455.111111z" fill="#5A6677" p-id="1591"></path></svg>