<?xml version="1.0" standalone="no"?><!DOCTYPE svg PUBLIC "-//W3C//DTD SVG 1.1//EN" "http://www.w3.org/Graphics/SVG/1.1/DTD/svg11.dtd"><svg t="1676541492945" class="icon" viewBox="0 0 1024 1024" version="1.1" xmlns="http://www.w3.org/2000/svg" p-id="1878" xmlns:xlink="http://www.w3.org/1999/xlink" width="200" height="200"><path d="M520.533333 957.866667c-23.466667 2.133333-46.933333 2.133333-72.533333 2.133333-206.933333 0-320-61.866667-320-93.866667v-168.533333c96 46.933333 206.933333 72.533333 320 72.533333 17.066667 0 32-14.933333 32-32s-14.933333-32-32-32c-115.2 0-224-27.733333-320-81.066666v-185.6c96 46.933333 206.933333 72.533333 320 72.533333 113.066667 0 224-25.6 320-74.666667V512c0 17.066667 14.933333 32 32 32S832 529.066667 832 512V128c0-100.266667-241.066667-128-384-128S64 27.733333 64 128v738.133333c0 102.4 194.133333 157.866667 384 157.866667 25.6 0 53.333333 0 78.933333-2.133333 17.066667-2.133333 29.866667-17.066667 29.866667-34.133334-2.133333-19.2-19.2-32-36.266667-29.866666zM448 448c-115.2 0-224-27.733333-320-81.066667V204.8C209.066667 243.2 352 256 448 256s238.933333-12.8 320-51.2v162.133333c-96 53.333333-204.8 81.066667-320 81.066667z m0-384c189.866667 0 307.2 40.533333 320 64-12.8 23.466667-130.133333 64-320 64S140.8 151.466667 128 128c12.8-23.466667 130.133333-64 320-64z" fill="#212121" p-id="1879"></path><path d="M800 768h-128c-17.066667 0-32 14.933333-32 32s14.933333 32 32 32h128c17.066667 0 32-14.933333 32-32s-14.933333-32-32-32z" fill="#212121" p-id="1880"></path><path d="M736 576C612.266667 576 512 676.266667 512 800S612.266667 1024 736 1024 960 923.733333 960 800 859.733333 576 736 576z m0 384c-89.6 0-160-70.4-160-160s70.4-160 160-160 160 70.4 160 160-70.4 160-160 160z" fill="#212121" p-id="1881"></path></svg>