<?xml version="1.0" standalone="no"?><!DOCTYPE svg PUBLIC "-//W3C//DTD SVG 1.1//EN" "http://www.w3.org/Graphics/SVG/1.1/DTD/svg11.dtd"><svg t="1676541571758" class="icon" viewBox="0 0 1024 1024" version="1.1" xmlns="http://www.w3.org/2000/svg" p-id="2340" xmlns:xlink="http://www.w3.org/1999/xlink" width="200" height="200"><path d="M0 192l0 704 1024 0L1024 192 0 192zM384 640l0-128 256 0 0 128L384 640zM640 704l0 128L384 832l0-128L640 704zM640 320l0 128L384 448l0-128L640 320zM320 320l0 128L64 448l0-128L320 320zM64 512l256 0 0 128L64 640 64 512zM704 512l256 0 0 128L704 640 704 512zM704 448l0-128 256 0 0 128L704 448zM64 704l256 0 0 128L64 832 64 704zM704 832l0-128 256 0 0 128L704 832z" fill="#000000" p-id="2341"></path></svg>