<?xml version="1.0" standalone="no"?><!DOCTYPE svg PUBLIC "-//W3C//DTD SVG 1.1//EN" "http://www.w3.org/Graphics/SVG/1.1/DTD/svg11.dtd"><svg
  class="icon" viewBox="0 0 1024 1024" version="1.1" xmlns="http://www.w3.org/2000/svg" id="mx_n_1678694203740" xmlns:xlink="http://www.w3.org/1999/xlink" width="200" height="200"><path d="M810.666667 384H213.333333c-46.933333 0-85.333333-38.4-85.333333-85.333333V213.333333c0-46.933333 38.4-85.333333 85.333333-85.333333h597.333334c46.933333 0 85.333333 38.4 85.333333 85.333333v85.333334c0 46.933333-38.4 85.333333-85.333333 85.333333zM213.333333 213.333333v85.333334h597.333334V213.333333H213.333333zM384 896H213.333333c-46.933333 0-85.333333-38.4-85.333333-85.333333v-256c0-46.933333 38.4-85.333333 85.333333-85.333334h170.666667c46.933333 0 85.333333 38.4 85.333333 85.333334v256c0 46.933333-38.4 85.333333-85.333333 85.333333z m-170.666667-341.333333v256h170.666667v-256H213.333333zM853.333333 554.666667h-256c-25.6 0-42.666667-17.066667-42.666666-42.666667s17.066667-42.666667 42.666666-42.666667h256c25.6 0 42.666667 17.066667 42.666667 42.666667s-17.066667 42.666667-42.666667 42.666667zM853.333333 725.333333h-256c-25.6 0-42.666667-17.066667-42.666666-42.666666s17.066667-42.666667 42.666666-42.666667h256c25.6 0 42.666667 17.066667 42.666667 42.666667s-17.066667 42.666667-42.666667 42.666666zM853.333333 896h-256c-25.6 0-42.666667-17.066667-42.666666-42.666667s17.066667-42.666667 42.666666-42.666666h256c25.6 0 42.666667 17.066667 42.666667 42.666666s-17.066667 42.666667-42.666667 42.666667z"
                                                                                                                                                                                          fill="#ffffff"></path></svg>
