<?xml version="1.0" standalone="no"?><!DOCTYPE svg PUBLIC "-//W3C//DTD SVG 1.1//EN" "http://www.w3.org/Graphics/SVG/1.1/DTD/svg11.dtd"><svg t="1676547448502" class="icon" viewBox="0 0 1024 1024" version="1.1" xmlns="http://www.w3.org/2000/svg" p-id="8452" xmlns:xlink="http://www.w3.org/1999/xlink" width="200" height="200"><path d="M708.923077 393.846154c0-43.323077-35.446154-78.769231-78.769231-78.769231H118.153846c-43.323077 0-78.769231 35.446154-78.769231 78.769231v512c0 43.323077 35.446154 78.769231 78.769231 78.769231h512c43.323077 0 78.769231-35.446154 78.769231-78.769231V393.846154z m137.846154 433.230769h-59.076923v-118.153846h59.076923c11.815385 0 19.692308-7.876923 19.692307-19.692308V177.230769c0-11.815385-7.876923-19.692308-19.692307-19.692307H334.769231c-11.815385 0-19.692308 7.876923-19.692308 19.692307v59.076923h-118.153846V177.230769c0-76.8 61.046154-137.846154 137.846154-137.846154h512c76.8 0 137.846154 61.046154 137.846154 137.846154v512c0 76.8-61.046154 137.846154-137.846154 137.846154z" fill="#FFFFFF" p-id="8453"></path></svg>