<?xml version="1.0" standalone="no"?><!DOCTYPE svg PUBLIC "-//W3C//DTD SVG 1.1//EN" "http://www.w3.org/Graphics/SVG/1.1/DTD/svg11.dtd"><svg t="1684923575785" class="icon" viewBox="0 0 1024 1024" version="1.1" xmlns="http://www.w3.org/2000/svg" p-id="2594" xmlns:xlink="http://www.w3.org/1999/xlink" width="200" height="200"><path d="M736 160.086h192c17.673 0 32 14.327 32 32v639.832c0 17.673-14.327 32-32 32H736v59.09C736 940.677 721.673 955 704 955c-1.514 0-3.026-0.107-4.525-0.322l-608-86.836C75.71 865.59 64 852.092 64 836.172v-648.34c0-15.92 11.71-29.418 27.475-31.67l608-86.836c17.495-2.5 33.704 9.655 36.203 27.146 0.215 1.499 0.322 3.01 0.322 4.524v59.09z m0 63.985v575.862h160V224.071H736z m-600-1.555v578.972l528 75.41V147.106l-528 75.41z m232 121.526h64l64 223.9 64-223.9h64l-96 335.85h-64l-64-223.9-64 223.9h-0.02l0.02 0.07h-64l-96-335.92h64l63.993 223.923L368 344.042z" fill="#5090F1" p-id="2595"></path></svg>